<svg width="24" height="24" viewBox="0 0 24 24" fill="none" xmlns="http://www.w3.org/2000/svg">
<g clip-path="url(#clip0_3_2855)">
<path d="M11.253 4.81802L19.3848 12.9497C20.9475 14.5125 20.9475 17.0439 19.3848 18.6066C17.8221 20.1693 15.2906 20.1693 13.7279 18.6066L4.88909 9.76777C3.91328 8.79196 3.91328 7.20804 4.88909 6.23223C5.86489 5.25643 7.44881 5.25643 8.42462 6.23223L15.8492 13.6569C16.2382 14.0458 16.2382 14.6822 15.8492 15.0711C15.4603 15.46 14.8239 15.46 14.435 15.0711L7.71751 8.35355L6.65685 9.41421L13.3744 16.1317C14.3502 17.1075 15.9341 17.1075 16.9099 16.1317C17.8857 15.1559 17.8857 13.572 16.9099 12.5962L9.48528 5.17157C7.92258 3.60887 5.39113 3.60887 3.82843 5.17157C2.26572 6.73428 2.26572 9.26572 3.82843 10.8284L12.6673 19.6673C14.8169 21.8169 18.2958 21.8169 20.4454 19.6673C22.595 17.5177 22.595 14.0387 20.4454 11.8891L12.3137 3.75736L11.253 4.81802Z" fill="#9DA3A7"/>
</g>
<defs>
<clipPath id="clip0_3_2855">
<rect width="24" height="24" fill="white"/>
</clipPath>
</defs>
</svg>
