<svg width="24" height="24" viewBox="0 0 24 24" fill="none" xmlns="http://www.w3.org/2000/svg">
<g clip-path="url(#clip0_3_2858)">
<path d="M12.2 15.4C13.9673 15.4 15.4 13.9673 15.4 12.2C15.4 10.4327 13.9673 9 12.2 9C10.4327 9 9 10.4327 9 12.2C9 13.9673 10.4327 15.4 12.2 15.4Z" fill="#9DA3A7"/>
<path d="M9 2L7.17 4H4C2.9 4 2 4.9 2 6V18C2 19.1 2.9 20 4 20H20C21.1 20 22 19.1 22 18V6C22 4.9 21.1 4 20 4H16.83L15 2H9ZM12 17C9.24 17 7 14.76 7 12C7 9.24 9.24 7 12 7C14.76 7 17 9.24 17 12C17 14.76 14.76 17 12 17Z" fill="#9DA3A7"/>
</g>
<defs>
<clipPath id="clip0_3_2858">
<rect width="24" height="24" fill="white"/>
</clipPath>
</defs>
</svg>
