<svg width="61" height="61" viewBox="0 0 61 61" fill="none" xmlns="http://www.w3.org/2000/svg">
<path d="M18 23C18 24.3807 16.8807 25.5 15.5 25.5C14.1193 25.5 13 24.3807 13 23C13 21.6193 14.1193 20.5 15.5 20.5C16.8807 20.5 18 21.6193 18 23Z" fill="#9DA3A7"/>
<path d="M18 30.5C18 31.8807 16.8807 33 15.5 33C14.1193 33 13 31.8807 13 30.5C13 29.1193 14.1193 28 15.5 28C16.8807 28 18 29.1193 18 30.5Z" fill="#9DA3A7"/>
<path d="M25.5 30.5C25.5 31.8807 24.3807 33 23 33C21.6193 33 20.5 31.8807 20.5 30.5C20.5 29.1193 21.6193 28 23 28C24.3807 28 25.5 29.1193 25.5 30.5Z" fill="#9DA3A7"/>
<path d="M25.5 23C25.5 24.3807 24.3807 25.5 23 25.5C21.6193 25.5 20.5 24.3807 20.5 23C20.5 21.6193 21.6193 20.5 23 20.5C24.3807 20.5 25.5 21.6193 25.5 23Z" fill="#9DA3A7"/>
<path d="M33 23C33 24.3807 31.8807 25.5 30.5 25.5C29.1193 25.5 28 24.3807 28 23C28 21.6193 29.1193 20.5 30.5 20.5C31.8807 20.5 33 21.6193 33 23Z" fill="#9DA3A7"/>
<path d="M33 30.5C33 31.8807 31.8807 33 30.5 33C29.1193 33 28 31.8807 28 30.5C28 29.1193 29.1193 28 30.5 28C31.8807 28 33 29.1193 33 30.5Z" fill="#9DA3A7"/>
<path d="M40.5 23C40.5 24.3807 39.3807 25.5 38 25.5C36.6193 25.5 35.5 24.3807 35.5 23C35.5 21.6193 36.6193 20.5 38 20.5C39.3807 20.5 40.5 21.6193 40.5 23Z" fill="#9DA3A7"/>
<path d="M40.5 30.5C40.5 31.8807 39.3807 33 38 33C36.6193 33 35.5 31.8807 35.5 30.5C35.5 29.1193 36.6193 28 38 28C39.3807 28 40.5 29.1193 40.5 30.5Z" fill="#9DA3A7"/>
<path d="M48 23C48 24.3807 46.8807 25.5 45.5 25.5C44.1193 25.5 43 24.3807 43 23C43 21.6193 44.1193 20.5 45.5 20.5C46.8807 20.5 48 21.6193 48 23Z" fill="#9DA3A7"/>
<path d="M48 30.5C48 31.8807 46.8807 33 45.5 33C44.1193 33 43 31.8807 43 30.5C43 29.1193 44.1193 28 45.5 28C46.8807 28 48 29.1193 48 30.5Z" fill="#9DA3A7"/>
<path d="M5.5 28C5.5 20.9289 5.5 17.3934 7.6967 15.1967C9.8934 13 13.4289 13 20.5 13H40.5C47.571 13 51.1065 13 53.3032 15.1967C55.5 17.3934 55.5 20.9289 55.5 28V33C55.5 40.071 55.5 43.6065 53.3032 45.8032C51.1065 48 47.571 48 40.5 48H20.5C13.4289 48 9.8934 48 7.6967 45.8032C5.5 43.6065 5.5 40.071 5.5 33V28Z" stroke="#9DA3A7" stroke-width="3.75"/>
<path d="M18 40.5H43" stroke="#9DA3A7" stroke-width="3.75" stroke-linecap="round"/>
</svg>
