<svg width="20" height="20" viewBox="0 0 20 20" fill="none" xmlns="http://www.w3.org/2000/svg">
<circle cx="10" cy="10" r="10" fill="#9DA3A7"/>
<g clip-path="url(#clip0_74_17920)">
<path d="M10.6071 16.361L6.72668 11.4234L6.7491 10.4448C8.57028 10.5725 9.98614 10.3764 10.3155 8.62452L6.43507 8.60187L7.06312 7.53226L10.1585 7.57757C9.68689 6.58073 8.38979 6.45786 6.36777 6.53106L7.06312 5.48411L13.6354 5.47412L12.9849 6.50804H11.168C11.5001 6.86453 11.7431 7.27472 11.7512 7.623L13.6354 7.60025L12.9849 8.62419L11.7288 8.64695C11.5327 10.1744 10.1528 11.0787 8.40907 11.2865L12.3155 16.3596L10.6072 16.3606V16.3606L10.6071 16.361Z" fill="white" stroke="white" stroke-width="0.099084"/>
</g>
<defs>
<clipPath id="clip0_74_17920">
<rect width="7.27273" height="10.9091" fill="white" transform="translate(6.36276 5.45459)"/>
</clipPath>
</defs>
</svg>
