<svg width="28" height="28" viewBox="0 0 28 28" fill="none" xmlns="http://www.w3.org/2000/svg">
<path d="M18.375 22.75H3.5C3.03587 22.75 2.59075 22.5656 2.26256 22.2374C1.93437 21.9092 1.75 21.4641 1.75 21V7C1.75 6.53587 1.93437 6.09075 2.26256 5.76256C2.59075 5.43437 3.03587 5.25 3.5 5.25H18.375C18.8391 5.25 19.2842 5.43437 19.6124 5.76256C19.9406 6.09075 20.125 6.53587 20.125 7V10.5525L24.8675 7.16625C24.9981 7.07326 25.1517 7.01795 25.3116 7.00633C25.4715 6.99472 25.6315 7.02725 25.7742 7.10039C25.9168 7.17353 26.0367 7.28445 26.1206 7.42105C26.2045 7.55766 26.2493 7.71469 26.25 7.875V20.125C26.2493 20.2853 26.2045 20.4423 26.1206 20.5789C26.0367 20.7155 25.9168 20.8265 25.7742 20.8996C25.6315 20.9727 25.4715 21.0053 25.3116 20.9937C25.1517 20.9821 24.9981 20.9267 24.8675 20.8337L20.125 17.4475V21C20.125 21.4641 19.9406 21.9092 19.6124 22.2374C19.2842 22.5656 18.8391 22.75 18.375 22.75Z" fill="white"/>
</svg>
